<svg width="33" height="24" viewBox="0 0 33 24" fill="none" xmlns="http://www.w3.org/2000/svg">
<path d="M11.5 4.25C11.5 3.83579 11.8358 3.5 12.25 3.5H12.8083C13.7587 3.5 14.3278 4.13899 14.6532 4.73299C14.8702 5.12894 15.0271 5.58818 15.1498 6.00395C15.1831 6.00134 15.2167 6 15.2508 6H27.7481C28.5783 6 29.1778 6.79442 28.9502 7.5928L27.1224 14.0019C26.7856 15.1832 25.7062 15.9978 24.4779 15.9978H18.5298C17.2913 15.9978 16.2056 15.1699 15.8778 13.9756L15.1173 11.2045L13.8587 6.95578L13.8567 6.94834C13.701 6.38051 13.5549 5.85005 13.3377 5.4537C13.1269 5.0688 12.9588 5 12.8083 5H12.25C11.8358 5 11.5 4.66421 11.5 4.25ZM16.5728 10.8403L17.3243 13.5786C17.4733 14.1215 17.9668 14.4978 18.5298 14.4978H24.4779C25.0362 14.4978 25.5268 14.1275 25.68 13.5906L27.4168 7.5H15.5855L16.5591 10.7868C16.5643 10.8046 16.5689 10.8224 16.5728 10.8403ZM20 19C20 20.1046 19.1046 21 18 21C16.8954 21 16 20.1046 16 19C16 17.8954 16.8954 17 18 17C19.1046 17 20 17.8954 20 19ZM18.5 19C18.5 18.7239 18.2761 18.5 18 18.5C17.7239 18.5 17.5 18.7239 17.5 19C17.5 19.2761 17.7239 19.5 18 19.5C18.2761 19.5 18.5 19.2761 18.5 19ZM27 19C27 20.1046 26.1046 21 25 21C23.8954 21 23 20.1046 23 19C23 17.8954 23.8954 17 25 17C26.1046 17 27 17.8954 27 19ZM25.5 19C25.5 18.7239 25.2761 18.5 25 18.5C24.7239 18.5 24.5 18.7239 24.5 19C24.5 19.2761 24.7239 19.5 25 19.5C25.2761 19.5 25.5 19.2761 25.5 19Z" fill="#4A4949"/>
<path d="M12.164 11.276V12.844H8.692V16.624H6.928V12.844H3.456V11.276H6.928V7.496H8.692V11.276H12.164Z" fill="#4A4949"/>
</svg>
